<svg t="1627032918088" class="icon" viewBox="0 0 1024 1024" xmlns="http://www.w3.org/2000/svg" p-id="8286" xmlns:xlink="http://www.w3.org/1999/xlink" width="128" height="128"><defs><style>@font-face{font-family:feedback-iconfont;src:url(//at.alicdn.com/t/font_1031158_1uhr8ri0pk5.eot?#iefix)format("embedded-opentype"),url(//at.alicdn.com/t/font_1031158_1uhr8ri0pk5.woff2)format("woff2"),url(//at.alicdn.com/t/font_1031158_1uhr8ri0pk5.woff)format("woff"),url(//at.alicdn.com/t/font_1031158_1uhr8ri0pk5.ttf)format("truetype"),url(//at.alicdn.com/t/font_1031158_1uhr8ri0pk5.svg#iconfont)format("svg")}</style></defs><path d="M514.56 9.728c-277.504.0-503.808 226.304-503.808 503.808s226.304 502.272 503.808 502.272S1018.88 789.504 1018.88 512 792.064 9.728 514.56 9.728zm0 974.336c-259.072.0-469.504-211.968-469.504-471.04S257.024 40.96 516.096 40.96 985.6 252.928 985.6 512 774.144 984.064 514.56 984.064z" p-id="8287" fill="#150707"/><path d="M771.584 812.544l13.824-135.168c-39.936 11.776-125.952 19.968-184.832 19.968-167.936.0-257.024-58.88-244.224-182.784 14.336-138.24 141.312-182.272 290.816-182.272 68.608.0 153.088 11.264 188.928 23.04l17.408-141.824c-54.272-13.312-112.128-20.992-210.432-20.992-253.952.0-485.888 118.784-507.904 329.216-18.432 176.64 138.24 310.784 428.032 310.784 101.376.0 173.568-8.192 208.384-19.968zm0 0" p-id="8288" fill="#150707"/></svg>